HIERARCHY
ROOT root
{
  OFFSET 0 93.2929 0
  CHANNELS 6 Xposition Yposition Zposition Zrotation Xrotation Yrotation
  JOINT torso_1
  {
    OFFSET 0 5.07867 -1.15138
    CHANNELS 6 Xposition Yposition Zposition Zrotation Xrotation Yrotation
    JOINT torso_2
    {
      OFFSET 0 5.61661 1.07143
      CHANNELS 6 Xposition Yposition Zposition Zrotation Xrotation Yrotation
      JOINT torso_3
      {
        OFFSET -1.02604e-17 5.98978 0.11501
        CHANNELS 6 Xposition Yposition Zposition Zrotation Xrotation Yrotation
        JOINT torso_4
        {
          OFFSET -1.10457e-17 6.50583 -0.443523
          CHANNELS 6 Xposition Yposition Zposition Zrotation Xrotation Yrotation
          JOINT torso_5
          {
            OFFSET -1.97295e-17 7.60548 -1.50593
            CHANNELS 6 Xposition Yposition Zposition Zrotation Xrotation Yrotation
            JOINT torso_6
            {
              OFFSET -2.53307e-17 9.49737 -0.914492
              CHANNELS 6 Xposition Yposition Zposition Zrotation Xrotation Yrotation
              JOINT torso_7
              {
                OFFSET -2.90401e-17 10.5513 1.57691
                CHANNELS 6 Xposition Yposition Zposition Zrotation Xrotation Yrotation
                JOINT neck_1
                {
                  OFFSET -1.29193e-17 4.78644 0.715339
                  CHANNELS 6 Xposition Yposition Zposition Zrotation Xrotation Yrotation
                  JOINT neck_2
                  {
                    OFFSET -1.8116e-17 4.82109 0.421791
                    CHANNELS 6 Xposition Yposition Zposition Zrotation Xrotation Yrotation
                    JOINT head
                    {
                      OFFSET -2.00958e-17 4.83041 0.765062
                      CHANNELS 6 Xposition Yposition Zposition Zrotation Xrotation Yrotation
                      End Site
                      {
                        OFFSET 0 0.1 0
                      }
                    }
                  }
                }
                JOINT l_shoulder
                {
                  OFFSET 1.23299 -7.60731 7.53374
                  CHANNELS 6 Xposition Yposition Zposition Zrotation Xrotation Yrotation
                  JOINT l_up_arm
                  {
                    OFFSET 12.9547 3.2495 -3.26872
                    CHANNELS 6 Xposition Yposition Zposition Zrotation Xrotation Yrotation
                    JOINT l_low_arm
                    {
                      OFFSET 29.2081 0.0598081 0.137039
                      CHANNELS 6 Xposition Yposition Zposition Zrotation Xrotation Yrotation
                      JOINT l_hand
                      {
                        OFFSET 24.234 0.0496219 0.113701
                        CHANNELS 6 Xposition Yposition Zposition Zrotation Xrotation Yrotation
                        End Site
                        {
                          OFFSET 0.1 0 0
                        }
                      }
                    }
                  }
                }
                JOINT r_shoulder
                {
                  OFFSET -1.23299 -7.60729 7.53365
                  CHANNELS 6 Xposition Yposition Zposition Zrotation Xrotation Yrotation
                  JOINT r_up_arm
                  {
                    OFFSET -12.9547 3.2495 -3.26872
                    CHANNELS 6 Xposition Yposition Zposition Zrotation Xrotation Yrotation
                    JOINT r_low_arm
                    {
                      OFFSET -29.2081 0.0598081 0.137039
                      CHANNELS 6 Xposition Yposition Zposition Zrotation Xrotation Yrotation
                      JOINT r_hand
                      {
                        OFFSET -24.234 0.0496218 0.113702
                        CHANNELS 6 Xposition Yposition Zposition Zrotation Xrotation Yrotation
                        End Site
                        {
                          OFFSET -0.1 0 0
                        }
                      }
                    }
                  }
                }
              }
            }
          }
        }
      }
    }
  }
  JOINT l_up_leg
  {
    OFFSET 9.23673 -4.20556 2.0327
    CHANNELS 6 Xposition Yposition Zposition Zrotation Xrotation Yrotation
    JOINT l_low_leg
    {
      OFFSET -0.852353 -38.7721 -0.655187
      CHANNELS 6 Xposition Yposition Zposition Zrotation Xrotation Yrotation
      JOINT l_foot
      {
        OFFSET -2.32622 -40.4017 -6.04875
        CHANNELS 6 Xposition Yposition Zposition Zrotation Xrotation Yrotation
        JOINT l_toes
        {
          OFFSET 0.779096 -9.8844 12.4959
          CHANNELS 6 Xposition Yposition Zposition Zrotation Xrotation Yrotation
          End Site
          {
            OFFSET 0 0 0.1
          }
        }
      }
    }
  }
  JOINT r_up_leg
  {
    OFFSET -9.23673 -4.20556 2.0327
    CHANNELS 6 Xposition Yposition Zposition Zrotation Xrotation Yrotation
    JOINT r_low_leg
    {
      OFFSET 0.852353 -38.7721 -0.655187
      CHANNELS 6 Xposition Yposition Zposition Zrotation Xrotation Yrotation
      JOINT r_foot
      {
        OFFSET 2.32622 -40.4017 -6.04875
        CHANNELS 6 Xposition Yposition Zposition Zrotation Xrotation Yrotation
        JOINT r_toes
        {
          OFFSET -0.779096 -9.8844 12.4959
          CHANNELS 6 Xposition Yposition Zposition Zrotation Xrotation Yrotation
          End Site
          {
            OFFSET 0 0 0.1
          }
        }
      }
    }
  }
}
MOTION
Frames: 4
Frame Time: 0.016667
0 93.2929 0 -0 0 -0 0 5.07867 -1.15138 -0 0 -0 0 5.61661 1.07143 -0 0 -0 -1.02604e-17 5.98978 0.11501 -0 0 -0 -1.10457e-17 6.50583 -0.443523 -0 0 -0 -1.97295e-17 7.60548 -1.50593 -0 0 -0 -2.53307e-17 9.49737 -0.914492 -0 0 -0 -2.90401e-17 10.5513 1.57691 -0 0 -0 -1.29193e-17 4.78644 0.715339 -0 0 -0 -1.8116e-17 4.82109 0.421791 -0 0 -0 -2.00958e-17 4.83041 0.765062 -0 0 -0 1.23299 -7.60731 7.53374 -0 0 -0 12.9547 3.2495 -3.26872 -0 0 -0 29.2081 0.0598081 0.137039 -0 0 -0 24.234 0.0496219 0.113701 -0 0 -0 -1.23299 -7.60729 7.53365 -0 0 -0 -12.9547 3.2495 -3.26872 -0 0 -0 -29.2081 0.0598081 0.137039 -0 0 -0 -24.234 0.0496218 0.113702 -0 0 -0 9.23673 -4.20556 2.0327 -0 0 -0 -0.852353 -38.7721 -0.655187 -0 0 -0 -2.32622 -40.4017 -6.04875 -0 0 -0 0.779096 -9.8844 12.4959 -0 0 -0 -9.23673 -4.20556 2.0327 -0 0 -0 0.852353 -38.7721 -0.655187 -0 0 -0 2.32622 -40.4017 -6.04875 -0 0 -0 -0.779096 -9.8844 12.4959 -0 0 -0 
2.51135 89.2182 32.7905 4.54913 15.1408 9.08957 0 5.07867 -1.15138 0.287068 3.72765 0.143199 0 5.61661 1.07143 0.388816 2.81146 0.160468 -1.02604e-17 5.98978 0.11501 0.376862 1.94842 0.182386 -1.10457e-17 6.50583 -0.443523 0.38923 0.258702 0.236712 -1.97295e-17 7.60548 -1.50593 0.395913 -0.922502 0.197497 -2.53307e-17 9.49737 -0.914492 0.402952 -2.3393 -0.103984 -2.90401e-17 10.5513 1.57691 0.0111452 1.2607 0.217161 -1.29193e-17 4.78644 0.715339 -0.810915 -7.36417 -3.48226 -1.8116e-17 4.82109 0.421791 -1.93503 -4.01808 -1.81778 -2.00958e-17 4.83041 0.765062 -3.67937 1.67145 -1.47177 1.23299 -7.60731 7.53374 9.40787 4.17995 -4.77276 12.9547 3.2495 -3.26872 -51.5112 59.6614 -63.3821 29.2081 0.0598081 0.137039 4.11087 -0.710599 -20.1991 24.234 0.0496219 0.113701 6.5268 -48.1514 0.15982 -1.23299 -7.60729 7.53365 -3.85713 6.82421 10.3385 -12.9547 3.2495 -3.26872 64.1586 28.4487 43.0136 -29.2081 0.0598081 0.137039 -3.38311 -0.473149 16.5149 -24.234 0.0496218 0.113702 5.68239 -53.9492 8.72707 9.23673 -4.20556 2.0327 1.75654 -30.7598 -17.3959 -0.852353 -38.7721 -0.655187 -4.22946 15.5277 0.304003 -2.32622 -40.4017 -6.04875 -6.8799 -6.95846 15.9131 0.779096 -9.8844 12.4959 2.48481e-17 -7.95139e-16 1.2424e-17 -9.23673 -4.20556 2.0327 -22.2685 -37.6628 -1.11027 0.852353 -38.7721 -0.655187 6.94487 24.6162 -1.07953 2.32622 -40.4017 -6.04875 2.89397 -6.43224 -15.4481 -0.779096 -9.8844 12.4959 -1.761e-15 -5.10701e-16 -1.26985e-14 
2.36258 89.0552 32.1524 4.14164 16.3186 8.90423 0 5.07867 -1.15138 0.331266 3.7778 0.102855 0 5.61661 1.07143 0.431688 2.82159 0.125718 -1.02604e-17 5.98978 0.11501 0.407758 1.90567 0.150241 -1.10457e-17 6.50583 -0.443523 0.410566 0.116468 0.202328 -1.97295e-17 7.60548 -1.50593 0.394848 -1.09595 0.162669 -2.53307e-17 9.49737 -0.914492 0.378868 -2.59279 -0.129194 -2.90401e-17 10.5513 1.57691 0.0126634 1.2811 0.207385 -1.29193e-17 4.78644 0.715339 -0.721116 -7.0697 -3.22613 -1.8116e-17 4.82109 0.421791 -1.90724 -4.17675 -1.69592 -2.00958e-17 4.83041 0.765062 -3.47365 1.13229 -1.39035 1.23299 -7.60731 7.53374 9.94122 4.11125 -4.6464 12.9547 3.2495 -3.26872 -51.7203 59.3644 -63.5142 29.2081 0.0598081 0.137039 4.15239 -0.725718 -20.4116 24.234 0.0496219 0.113701 6.6824 -48.6753 0.105454 -1.23299 -7.60729 7.53365 -4.85951 6.62617 10.018 -12.9547 3.2495 -3.26872 64.1909 28.9455 43.8541 -29.2081 0.0598081 0.137039 -3.44211 -0.490479 16.8108 -24.234 0.0496218 0.113702 6.37555 -54.2285 9.21777 9.23673 -4.20556 2.0327 2.17724 -32.9174 -17.1259 -0.852353 -38.7721 -0.655187 -4.473 16.3818 0.356016 -2.32622 -40.4017 -6.04875 -6.73594 -7.07763 15.9108 0.779096 -9.8844 12.4959 -3.65707e-16 -8.07343e-16 2.46289e-17 -9.23673 -4.20556 2.0327 -22.4543 -40.1216 -1.48103 0.852353 -38.7721 -0.655187 7.26223 25.6092 -1.19679 2.32622 -40.4017 -6.04875 2.95979 -5.65041 -15.4838 -0.779096 -9.8844 12.4959 -1.78906e-15 -5.09386e-16 -1.26974e-14 
2.18556 88.9333 31.5356 3.90444 17.3522 8.52609 0 5.07867 -1.15138 0.339938 3.71627 0.0914461 0 5.61661 1.07143 0.433678 2.77915 0.119298 -1.02604e-17 5.98978 0.11501 0.403981 1.88496 0.148689 -1.10457e-17 6.50583 -0.443523 0.403054 0.129092 0.20181 -1.97295e-17 7.60548 -1.50593 0.381887 -1.06046 0.163851 -2.53307e-17 9.49737 -0.914492 0.363457 -2.54566 -0.121726 -2.90401e-17 10.5513 1.57691 0.0132829 1.27011 0.203262 -1.29193e-17 4.78644 0.715339 -0.687492 -7.18832 -3.00906 -1.8116e-17 4.82109 0.421791 -1.86139 -4.37647 -1.59349 -2.00958e-17 4.83041 0.765062 -3.26404 0.750876 -1.32557 1.23299 -7.60731 7.53374 10.1879 3.95399 -4.56963 12.9547 3.2495 -3.26872 -51.5008 58.609 -63.9383 29.2081 0.0598081 0.137039 4.17947 -0.735673 -20.5503 24.234 0.0496219 0.113701 6.60224 -49.0916 0.0951143 -1.23299 -7.60729 7.53365 -5.18698 6.47015 9.91836 -12.9547 3.2495 -3.26872 63.6232 28.996 44.6644 -29.2081 0.0598081 0.137039 -3.48618 -0.503638 17.0322 -24.234 0.0496218 0.113702 6.99715 -54.273 9.77126 9.23673 -4.20556 2.0327 2.60583 -34.83 -16.6848 -0.852353 -38.7721 -0.655187 -4.6899 17.1366 0.40536 -2.32622 -40.4017 -6.04875 -6.69303 -6.9708 15.9322 0.779096 -9.8844 12.4959 1.78338e-17 -7.95358e-16 1.26432e-17 -9.23673 -4.20556 2.0327 -22.5782 -42.3185 -1.67887 0.852353 -38.7721 -0.655187 7.50235 26.35 -1.28897 2.32622 -40.4017 -6.04875 3.11125 -4.86103 -15.5168 -0.779096 -9.8844 12.4959 -2.26842e-16 -5.82615e-16 -1.27584e-14 
